# xmcd
#
# Track frame offsets: 
#        150
#        21965
#        43117
#        64535
#        79122
#        104177
#        122590
#        141840
#        159367
#        174147
#        195097
#        208742
#
# Disc length: 2959 seconds
#
# Revision: 2
# Processed by: cddbd v1.5.1PL0 Copyright (c) Steve Scherf et al.
# Submitted via: ExactAudioCopy v0.95a5
#
DISCID=9b0b8d0c
DTITLE=Bruce Robison - Wrapped
DYEAR=1998
DGENRE=Country
TTITLE0=Rayne, Louisiana (Duet with Charlie Robison)
TTITLE1=Wrapped
TTITLE2=Angry All The Time
TTITLE3=When I Loved You (Duet with Kelly Willis)
TTITLE4=My Brother And Me
TTITLE5=Desperately
TTITLE6=12 Bar Blues
TTITLE7=Go To Your Heart
TTITLE8=I Dream Too
TTITLE9=End Like That
TTITLE10=Don't You Ever Call My Name
TTITLE11=See You Around
EXTD=
EXTT0=
EXTT1=
EXTT2=
EXTT3=
EXTT4=
EXTT5=
EXTT6=
EXTT7=
EXTT8=
EXTT9=
EXTT10=
EXTT11=
PLAYORDER=
